<svg version="1.1" id="Layer_1" xmlns="http://www.w3.org/2000/svg" xmlns:xlink="http://www.w3.org/1999/xlink" x="0px" y="0px"
   width="30px" height="150px" viewBox="0 0 30 150" enable-background="new 0 0 30 150" xml:space="preserve">
<path id="linkedin_2_" fill-rule="evenodd" clip-rule="evenodd" fill="#FFFFFF" d="M19.853,23.114v-6.066
  c0-1.243-0.36-2.489-1.825-2.489c-1.465,0-2.077,1.246-2.077,2.519v6.036h-3.908V12.007h3.908v1.495
  c1.028-1.306,1.922-1.845,3.542-1.845c1.621,0,4.257,0.756,4.257,5.143v6.314H19.853z M8.433,10.36
  c-1.206,0-2.183-0.876-2.183-1.959c0-1.083,0.977-1.961,2.183-1.961c1.205,0,2.182,0.878,2.182,1.961
  C10.614,9.484,9.637,10.36,8.433,10.36z M10.382,23.114H6.468V12.007h3.914V23.114z"/>
<path fill-rule="evenodd" clip-rule="evenodd" fill="#FFFFFF" d="M16.989,35.063c-1.242-0.002-2.447,0.194-3.261,0.589
  c-0.813,0.395-1.4,1.096-1.704,1.727c-0.304,0.631-0.456,1.398-0.459,2.68l-0.002,1.216l-2.036-0.004L9.52,44.459l2.036,0.004
  l-0.02,10.591l4.353,0.008l0.02-10.591l2.715,0.005l0.758-3.187l-3.467-0.006l0.002-1.145c0.001-0.774,0.143-1.298,0.425-1.57
  c0.282-0.272,0.841-0.434,1.489-0.433c0.658,0.001,1.186,0.309,1.85,0.699l0.799-2.998C19.259,35.49,18.263,35.065,16.989,35.063z"
  />
<path id="twitter_2_" fill-rule="evenodd" clip-rule="evenodd" fill="#FFFFFF" d="M18.604,66.634
  c1.589-0.028,2.435,0.551,3.243,1.287c0.686-0.059,1.577-0.442,2.102-0.709c0.17-0.093,0.34-0.186,0.51-0.279
  c-0.3,0.81-0.706,1.445-1.331,1.926c-0.139,0.107-0.277,0.251-0.45,0.319c0,0.003,0,0.007,0,0.01
  c0.89-0.009,1.625-0.411,2.322-0.629c0,0.003,0,0.007,0,0.01c-0.366,0.582-0.862,1.173-1.391,1.597
  c-0.214,0.17-0.427,0.339-0.641,0.509c0.012,0.943-0.014,1.842-0.19,2.635c-1.025,4.606-3.74,7.732-8.038,9.072
  c-1.543,0.481-4.038,0.679-5.806,0.239c-0.877-0.218-1.669-0.463-2.412-0.788c-0.413-0.181-0.795-0.376-1.161-0.599
  c-0.12-0.073-0.24-0.146-0.36-0.22c0.399,0.012,0.865,0.122,1.311,0.05C6.715,81,7.11,81.017,7.482,80.936
  c0.928-0.204,1.752-0.473,2.462-0.888c0.344-0.201,0.866-0.438,1.111-0.729c-0.461,0.008-0.879-0.099-1.221-0.219
  c-1.327-0.469-2.1-1.33-2.603-2.625c0.402,0.044,1.561,0.149,1.832-0.08c-0.506-0.028-0.993-0.321-1.341-0.539
  c-1.068-0.668-1.938-1.789-1.932-3.513c0.14,0.067,0.28,0.133,0.42,0.2c0.268,0.113,0.541,0.174,0.861,0.24
  c0.135,0.028,0.405,0.107,0.561,0.05c-0.007,0-0.013,0-0.02,0c-0.207-0.241-0.543-0.401-0.751-0.659
  c-0.685-0.851-1.327-2.162-0.921-3.723c0.103-0.396,0.266-0.745,0.44-1.068c0.007,0.003,0.013,0.007,0.02,0.01
  c0.08,0.167,0.258,0.289,0.37,0.429c0.35,0.433,0.781,0.824,1.221,1.168c1.498,1.172,2.848,1.892,5.015,2.425
  c0.55,0.135,1.185,0.239,1.842,0.24c-0.184-0.537-0.125-1.406,0.02-1.926c0.365-1.307,1.158-2.25,2.322-2.754
  c0.278-0.121,0.587-0.209,0.911-0.279C18.27,66.674,18.437,66.654,18.604,66.634z"/>
<path fill-rule="evenodd" clip-rule="evenodd" fill="#FFFFFF" d="M14.785,140.407h1.195c0,0,0.361-0.04,0.546-0.238
  c0.17-0.183,0.164-0.525,0.164-0.525s-0.023-1.604,0.721-1.84c0.734-0.233,1.676,1.55,2.675,2.236
  c0.755,0.519,1.329,0.405,1.329,0.405l2.671-0.037c0,0,1.397-0.086,0.735-1.185c-0.054-0.09-0.386-0.813-1.986-2.298
  c-1.675-1.554-1.45-1.303,0.567-3.992c1.229-1.638,1.72-2.637,1.566-3.065c-0.146-0.408-1.05-0.3-1.05-0.3l-3.007,0.019
  c0,0-0.223-0.03-0.388,0.068c-0.162,0.097-0.265,0.323-0.265,0.323s-0.476,1.267-1.111,2.345c-1.339,2.274-1.875,2.394-2.093,2.253
  c-0.509-0.329-0.382-1.322-0.382-2.027c0-2.204,0.334-3.122-0.651-3.36c-0.327-0.079-0.568-0.131-1.404-0.14
  c-1.073-0.011-1.981,0.003-2.495,0.255c-0.342,0.168-0.606,0.541-0.445,0.562c0.199,0.026,0.649,0.121,0.887,0.446
  c0.308,0.419,0.297,1.361,0.297,1.361s0.177,2.594-0.414,2.916c-0.405,0.221-0.961-0.23-2.155-2.293
  c-0.612-1.057-1.073-2.225-1.073-2.225s-0.089-0.218-0.248-0.335c-0.193-0.142-0.462-0.186-0.462-0.186l-2.858,0.019
  c0,0-0.429,0.012-0.586,0.199c-0.14,0.166-0.011,0.509-0.011,0.509s2.237,5.234,4.771,7.872
  C12.148,140.566,14.785,140.407,14.785,140.407L14.785,140.407z"/>
<g>
  <path fill-rule="evenodd" clip-rule="evenodd" fill="#FFFFFF" d="M11,103.75v2.4h3.97c-0.16,1.03-1.2,3.02-3.97,3.02
    c-2.39,0-4.34-1.98-4.34-4.42c0-2.44,1.95-4.42,4.34-4.42c1.36,0,2.27,0.58,2.79,1.08l1.9-1.83c-1.22-1.14-2.8-1.83-4.69-1.83
    c-3.87,0-7,3.13-7,7c0,3.87,3.13,7,7,7c4.04,0,6.72-2.84,6.72-6.84c0-0.46-0.05-0.81-0.11-1.16H11L11,103.75L11,103.75z M11,103.75
    "/>
  <polygon fill-rule="evenodd" clip-rule="evenodd" fill="#FFFFFF" points="26,105.75 24,105.75 24,107.75 22,107.75 22,105.75
    20,105.75 20,103.75 22,103.75 22,101.75 24,101.75 24,103.75 26,103.75   "/>
</g>
</svg>